<svg width="676.9812499999999px" height="282.7999633789062px" xmlns="http://www.w3.org/2000/svg" viewBox="-88.49062499999997 -66.39998168945311 676.9812499999999 282.7999633789062" style="background: none;" preserveAspectRatio="xMidYMid"><defs><filter id="editing-vintage" x="-100%" y="-100%" width="300%" height="300%"><feConvolveMatrix in="SourceGraphic" result="extrude" order="3,3" divisor="1" kernelMatrix="1,0,0,0,1,0,0,0,1"> </feConvolveMatrix><feFlood flood-color="#900" result="flood-extrude"></feFlood><feComposite operator="in" in="flood-extrude" in2="extrude" result="extrude-color"></feComposite><feOffset dx="2" dy="2" in="extrude-color" result="extrude-offset"></feOffset><feColorMatrix in="SourceGraphic" result="stroke" type="matrix" values="0 0 0 0 0 0 0 0 0 0 0 0 0 0 0 0 1 0 0 0 "></feColorMatrix><feColorMatrix in="SourceGraphic" result="fill" type="matrix" values="0 0 0 0 0 0 0 0 0 0 0 0 0 0 0 1 0 0 1 0 "></feColorMatrix><feConvolveMatrix in="stroke" result="inner-shadow" order="5,5" divisor="1" kernelMatrix="1 0 0 0 0 0 1 0 0 0 0 0 1 0 0 0 0 0 1 0 0 0 0 0 1 "></feConvolveMatrix><feOffset dx="1" dy="1" in="inner-shadow" result="offset"></feOffset><feComposite operator="in" in="offset" in2="SourceAlpha" result="comp"></feComposite><feFlood flood-color="none" result="flood3"></feFlood><feComposite operator="in" in="flood3" in2="comp" result="comp2"></feComposite><feColorMatrix in="comp2" result="comp3" type="matrix" values="1 0 0 0 0 0 1 0 0 0 0 0 1 0 0 0 0 0 0.5 0 "></feColorMatrix><feFlood flood-color="#a51919" result="flood1"></feFlood><feComposite operator="in" in="flood1" in2="fill" result="fill2"></feComposite><feFlood flood-color="#fff" result="flood2"></feFlood><feComposite operator="in" in="flood2" in2="stroke" result="stroke2"></feComposite><feMerge result="obj"><feMergeNode in="extrude-offset"></feMergeNode><feMergeNode in="fill2"></feMergeNode><feMergeNode in="comp3"></feMergeNode></feMerge><feConvolveMatrix in="SourceAlpha" result="shadow" order="3,3" divisor="1" kernelMatrix="1,0,0,0,1,0,0,0,1"></feConvolveMatrix><feOffset dx="6" dy="6" in="shadow" result="shadow-offset"></feOffset><feFlood flood-color="none" result="flood-shadow"></feFlood><feComposite operator="in" in="flood-shadow" in2="shadow-offset" result="shadow-color"></feComposite><feMerge><feMergeNode in="shadow-color"></feMergeNode><feMergeNode in="obj"></feMergeNode></feMerge></filter></defs><g transform="translate(-3,-3)"><g filter="url(#editing-vintage)"><g transform="translate(9.124998092651367, 129.33999824523926)"><path d="M64.88-108.53L102.63 0L84.35 0L56.18-81.40L27.72 0L9.29 0L47.33-108.53L64.88-108.53ZM46.16-34.51L65.92-34.51L70.19-22.56L42.03-22.56L46.16-34.51ZM186.10-33.77L186.10-108.68L204.09-108.68L204.09 0L186.10 0L149.53-64.29L149.53-98.21L186.10-33.77ZM143.48 0L125.49 0L125.49-108.68L143.48-108.68L143.48 0ZM249.36-108.68L249.36 0L231.37 0L231.37-108.68L249.36-108.68ZM276.49 0L276.49-108.68L294.48-108.68L323.68-41.58L323.68-14.30L318.96-14.30L294.48-74.76L294.48 0L276.49 0ZM329.72-41.29L358.92-108.68L376.91-108.68L376.91 0L358.92 0L358.92-74.76L334.59-14.30L329.72-14.30L329.72-41.29ZM404.49 0L404.49-108.68L422.48-108.68L422.48 0L404.49 0ZM467.89-61.05L467.89-48.96L428.52-48.96L428.52-61.05L467.89-61.05ZM428.52 0L428.52-13.42L472.46-13.42L472.46 0L428.52 0ZM428.52-108.68L472.46-108.68L472.46-95.26L428.52-95.26L428.52-108.68Z" fill="#f00" stroke="#0f0" stroke-width="1.8"></path></g></g><g><g transform="translate(9.125012397766113, 129.3400001525879)"><path d="M64.88-108.53L102.63 0L84.35 0L56.18-81.40L27.72 0L9.29 0L47.33-108.53L64.88-108.53ZM46.16-34.51L65.92-34.51L70.19-22.56L42.03-22.56L46.16-34.51ZM186.10-33.77L186.10-108.68L204.09-108.68L204.09 0L186.10 0L149.53-64.29L149.53-98.21L186.10-33.77ZM143.48 0L125.49 0L125.49-108.68L143.48-108.68L143.48 0ZM249.36-108.68L249.36 0L231.37 0L231.37-108.68L249.36-108.68ZM276.49 0L276.49-108.68L294.48-108.68L323.68-41.58L323.68-14.30L318.96-14.30L294.48-74.76L294.48 0L276.49 0ZM329.72-41.29L358.92-108.68L376.91-108.68L376.91 0L358.92 0L358.92-74.76L334.59-14.30L329.72-14.30L329.72-41.29ZM404.49 0L404.49-108.68L422.48-108.68L422.48 0L404.49 0ZM467.89-61.05L467.89-48.96L428.52-48.96L428.52-61.05L467.89-61.05ZM428.52 0L428.52-13.42L472.46-13.42L472.46 0L428.52 0ZM428.52-108.68L472.46-108.68L472.46-95.26L428.52-95.26L428.52-108.68Z" fill="none" stroke="#f2eddb" stroke-width="2.1"></path></g></g></g><style>text {
  font-size: 64px;
  font-family: Arial Black;
  dominant-baseline: central;
  text-anchor: middle;
}</style></svg>